<?xml version="1.0" encoding="utf-8"?>
<!-- Generator: Adobe Illustrator 21.0.2, SVG Export Plug-In . SVG Version: 6.00 Build 0)  -->
<svg version="1.1" id="Layer_1" xmlns="http://www.w3.org/2000/svg" xmlns:xlink="http://www.w3.org/1999/xlink" x="0px" y="0px"
	 viewBox="0 0 193.3 214.4" style="enable-background:new 0 0 193.3 214.4;" xml:space="preserve">
<style type="text/css">
	.st0{fill:#FCFAFA;stroke:#070707;stroke-miterlimit:10;}
	.st1{fill:#FCFAFA;stroke:#000000;stroke-miterlimit:10;}
	.st2{fill:#020202;stroke:#000000;stroke-miterlimit:10;}
	.st3{fill:#F9F4F4;stroke:#000000;stroke-miterlimit:10;}
	.st4{fill:#070707;stroke:#070707;stroke-miterlimit:10;}
	.st5{fill:#070707;}
	.st6{fill:#050505;stroke:#000000;stroke-miterlimit:10;}
	.st7{fill:none;stroke:#070707;stroke-miterlimit:10;}
	.st8{fill:none;stroke:#000000;stroke-miterlimit:10;}
	.st9{fill:#EF0F0F;stroke:#EF0F0F;stroke-width:0.75;stroke-miterlimit:10;}
	.st10{fill:#F7F5F5;stroke:#F40808;stroke-miterlimit:10;}
</style>
<title>Asset 3</title>
<g id="Layer_2">
	<g id="Layer_1-2">

			<ellipse transform="matrix(0.9994 -3.542277e-02 3.542277e-02 0.9994 -6.456 3.9145)" class="st0" cx="107.2" cy="184.2" rx="4" ry="21.5"/>

			<ellipse transform="matrix(0.9994 -3.542277e-02 3.542277e-02 0.9994 -6.4371 4.9772)" class="st0" cx="137.2" cy="184.2" rx="4" ry="21.5"/>
		<path class="st1" d="M148.8,180.1h-53c-5-10-10-83-10-83c-7-65,30-77,30-77c38-17,50,35,50,35C176.8,80.2,148.8,180.1,148.8,180.1
			z"/>
		<path class="st2" d="M160.8,71.6c0,0-3.4,1-12.7,0.9c-4.1,0-9.3-0.3-15.8-0.9c0,0,9.3-17.1,19.7-11.2
			C154.9,62,157.9,65.5,160.8,71.6z"/>
		<path class="st3" d="M160.2,72.7c0,0-3.4,1-12.4,0.9c-4,0-9.1-0.3-15.6-0.9c0,0,9.2-15.9,19.4-10.4
			C154.5,63.8,157.4,67,160.2,72.7z"/>
		<path class="st4" d="M160.2,72.7c0,0-3.4,1-12.4,0.9c-0.7-1.2-1-2.5-1-3.9c0.1-3.2,2-6.1,4.9-7.4C154.5,63.8,157.4,67,160.2,72.7z
			"/>
		<path class="st5" d="M133.1,69.4c-0.9-0.3-1.5-1.1-1.7-2c0-0.4-0.3-0.7-0.8-0.8c-0.4,0-0.8,0.3-0.8,0.8c0.2,1.6,1.2,2.9,2.8,3.4
			C133.6,71.2,134,69.7,133.1,69.4L133.1,69.4z"/>
		<path class="st5" d="M138.1,64.7c-1.6-1.3-2.5-3.4-2.3-5.5c0.1-1-1.4-1-1.5,0c-0.2,2.5,0.8,4.9,2.7,6.6
			C137.8,66.3,138.9,65.3,138.1,64.7z"/>
		<path class="st5" d="M144.3,60.6l-1.1-4.1c-0.1-0.4-0.5-0.6-0.9-0.5s-0.6,0.5-0.5,0.9l1.1,4.1c0.1,0.4,0.5,0.6,0.9,0.5
			S144.4,61,144.3,60.6z"/>
		<path class="st5" d="M150.4,60.9c-0.3-1.5,0.1-3.1,1.1-4.2c0.6-0.7-0.4-1.8-1.1-1.1c-1.4,1.5-2,3.7-1.5,5.7
			C149.2,62.2,150.6,61.8,150.4,60.9z"/>
		<path class="st5" d="M155.4,64.1c0-1.2,0.9-2.3,2.1-2.3c0.1,0,0.1,0,0.2,0c0.9,0.1,1.4-1.3,0.4-1.5c-2-0.3-3.9,1.1-4.2,3.2
			c0,0.2,0,0.4,0,0.6C153.9,65.1,155.4,65.1,155.4,64.1z"/>
		<path class="st5" d="M159.4,71.3c-0.2-1.6,0.8-3.1,2.4-3.3c0.2,0,0.3,0,0.5,0c1,0,1-1.4,0-1.5c-2.4,0-4.4,1.9-4.5,4.3
			c0,0.3,0,0.6,0.1,0.9C158.1,72.7,159.6,72.3,159.4,71.3z"/>
		<path class="st4" d="M94.8,135.1h25c0,0-5-21-16-18C103.8,117.2,93.8,122.2,94.8,135.1z"/>
		<path class="st4" d="M130.8,135.6h25c0,0-5-21-16-18C139.8,117.7,129.8,122.7,130.8,135.6z"/>
		<path class="st5" d="M131.9,132.2h-13.2c-0.4,0-0.8,0.3-0.8,0.8s0.3,0.8,0.8,0.8h13.2c0.4,0,0.8-0.3,0.8-0.8
			S132.4,132.2,131.9,132.2z"/>
		<path class="st5" d="M145.8,119.3c4.6-4.1,11-5.6,17-3.9c0.4,0.1,0.8-0.1,0.9-0.5c0.1-0.4-0.1-0.8-0.5-0.9
			c-6.5-1.8-13.4-0.2-18.4,4.3C144,118.9,145.1,120,145.8,119.3L145.8,119.3z"/>
		<path class="st5" d="M153.9,135.4c2.2,0.2,4.5-0.3,6.4-1.5c0.8-0.5,0.1-1.8-0.8-1.3c-1.7,1.1-3.7,1.5-5.7,1.3
			C152.9,133.8,152.9,135.3,153.9,135.4z"/>
		<path class="st5" d="M101.5,119.5c-3.7-3.4-9.2-4-13.6-1.5c-0.4,0.2-0.5,0.7-0.3,1c0.2,0.4,0.7,0.5,1,0.3
			c3.8-2.2,8.5-1.7,11.8,1.2C101.1,121.2,102.2,120.2,101.5,119.5L101.5,119.5z"/>
		<path class="st5" d="M94.9,134c-1.7,0.1-3.4-0.3-4.8-1.2c-0.4-0.2-0.8-0.1-1,0.3c-0.2,0.4-0.1,0.8,0.3,1c1.7,1,3.6,1.5,5.6,1.4
			C95.9,135.5,95.9,134,94.9,134L94.9,134z"/>
		<path class="st5" d="M126.8,156.3V155c0-0.8-0.7-1.5-1.5-1.5s-1.5,0.7-1.5,1.5v1.4c0,0.8,0.7,1.5,1.5,1.5S126.8,157.2,126.8,156.3
			L126.8,156.3z"/>
		<path class="st4" d="M122.5,162.6h30.8c0,0-19.6,2-21.6,17.5h-17.1c0,0-11.6-17.5-22.9-17.5H122.5z"/>
		<path class="st4" d="M137.2,30.6c0,0-37,41-58,43s-41-2-40-6c0,0,32,3,36-5c0,0-17,22-34,22h-24c0,0,25,17,42,9c0,0-14,22-29,25
			l-28,1c0,0,28,12,43,8S86.8,118.3,87,114s-3.8-42.3-1.8-44.3S137.2,30.6,137.2,30.6z"/>
		<path class="st4" d="M166.5,96.3c0,0,30.7-31.7,16.7-61.7s-36-34-36-34s-34-3-48,18c-9.1,14-17.2,28.7-24,44L62.1,75.7
			c0,0,70.1-31.1,81.1-48.1c0,0,19.1,42.8,25.1,43.9L166.5,96.3z"/>
		<path class="st5" d="M71,76.4c1.4-1.7,3.2-3,5.1-4c0.7-0.4,0.9-1.4,0.5-2.1c-0.2-0.3-0.5-0.5-0.8-0.6c-2.9-0.8-6.1,0.1-8.2,2.3
			c-1.2,1.1,0.1,2.7,1.5,2.5c10.5-1.7,20.4-6.5,28.3-13.7c0.6-0.6,0.6-1.6,0-2.1c-0.4-0.4-0.9-0.5-1.4-0.4
			C86.7,61.4,78,65.7,69.9,71c-1.6,1.1-0.1,3.7,1.5,2.6c5.1-3.3,10.3-6.4,15.7-9.2l-2.2-1.7c-0.9,4.8-4.7,8.5-9.5,9.4l1.2,2.7
			l4.3-3.1c1.3-0.9,0.6-3.2-1.2-2.7l-8.3,2.3c-1.7,0.5-1.2,2.8,0.4,2.9c9.4,1,18.4-4.4,21.8-13.2c0.4-1.1-0.8-2.2-1.8-1.8L88,60.5
			c-0.8,0.2-1.2,1.1-1,1.9c0.2,0.8,1,1.2,1.8,1c19-4.4,33.9-19.3,38.1-38.3c0.2-0.8-0.3-1.6-1.1-1.8c-0.4-0.1-0.7,0-1.1,0.1
			c-7.2,3.6-13.8,8.4-19.5,14.2l2.5,1.5c1.7-4.6,5-8.5,9.4-10.8c1.7-0.9,0.2-3.5-1.5-2.6c-5,2.7-8.8,7.2-10.7,12.6
			c-0.5,1.4,1.5,2.5,2.5,1.5c5.5-5.6,11.8-10.3,18.8-13.8l-2.2-1.7c-3.9,18.1-18,32.2-36,36.3l0.8,2.9l3.8-1.3l-1.8-1.8
			c-3.1,7.5-10.9,12-18.9,11l0.4,2.9l8.3-2.3l-1.2-2.7l-4.3,3.1c-0.7,0.4-0.9,1.4-0.5,2.1c0.4,0.6,1,0.8,1.7,0.7
			c5.8-1.1,10.4-5.6,11.6-11.5c0.2-0.8-0.3-1.6-1.1-1.8c-0.4-0.1-0.7,0-1.1,0.1C80.2,64.6,75,67.7,69.9,71l1.5,2.6
			c7.9-5.2,16.3-9.4,25.2-12.5l-1.5-2.5c-7.6,6.8-16.9,11.3-27,12.9l1.5,2.5c1.3-1.5,3.4-2.1,5.3-1.5l-0.4-2.7
			c-2.2,1.1-4.1,2.6-5.7,4.5C67.6,75.8,69.7,77.9,71,76.4L71,76.4z"/>
		<ellipse transform="matrix(0.7582 -0.652 0.652 0.7582 -29.8622 141.7869)" class="st0" cx="176.3" cy="111.2" rx="21.5" ry="4"/>
		<ellipse transform="matrix(0.6711 -0.7414 0.7414 0.6711 -57.9831 91.611)" class="st0" cx="74.3" cy="111.2" rx="4" ry="21.5"/>
		<polygon class="st1" points="103.4,186.7 111.2,191.6 104.3,196.1 110.5,200 105.7,202.3 110.5,194.5 103.8,191.6 111.2,186.7
			"/>
		<path class="st6" d="M104,202.8c0,0-7.5,8.5-3.5,8.2l8-0.5l2.7-4.2l0.2,4l1.5-8.1l-2.8-0.2C110.2,202,100.6,212,104,202.8z"/>
		<polygon class="st1" points="142,186.6 134.1,191.6 141,196 134.9,199.9 139.6,202.3 134.9,194.4 141.6,191.5 134.1,186.6 		"/>
		<path class="st6" d="M141.3,202.8c0,0,7.5,8.5,3.5,8.2l-8-0.5l-2.7-4.2l-0.2,4l-1.5-8.1l2.8-0.2C135.1,202,144.8,212,141.3,202.8z
			"/>
		<path class="st7" d="M122.8,79.2c0,0,4,6,8,0"/>
		<path class="st8" d="M117.2,72.7c0,0-3.4,1-12.4,0.9c-4,0-9.1-0.3-15.6-0.9c0,0,9.2-15.9,19.4-10.4
			C111.5,63.8,114.4,67,117.2,72.7z"/>
		<path class="st4" d="M117.2,72.7c0,0-3.4,1-12.4,0.9c-0.7-1.2-1-2.5-1-3.9c0.1-3.2,2-6.1,4.9-7.4C111.5,63.8,114.4,67,117.2,72.7z
			"/>
		<path class="st5" d="M90.1,69.4c-0.9-0.3-1.5-1.1-1.7-2c0-0.4-0.3-0.7-0.8-0.8c-0.4,0-0.8,0.3-0.8,0.8c0.2,1.6,1.2,2.9,2.8,3.4
			C90.7,71.2,91,69.7,90.1,69.4z"/>
		<path class="st5" d="M95.1,64.7c-1.6-1.3-2.5-3.4-2.3-5.5c0.1-1-1.4-1-1.5,0c-0.2,2.5,0.8,4.9,2.7,6.6
			C94.8,66.3,95.9,65.3,95.1,64.7z"/>
		<path class="st5" d="M101.3,60.6l-1.1-4.1c-0.1-0.4-0.5-0.6-0.9-0.5c-0.4,0.1-0.6,0.5-0.5,0.9l1.1,4.1c0.1,0.4,0.5,0.6,0.9,0.5
			C101.2,61.4,101.4,61,101.3,60.6L101.3,60.6z"/>
		<path class="st5" d="M107.4,60.9c-0.3-1.5,0.1-3.1,1.1-4.2c0.6-0.7-0.4-1.8-1.1-1.1c-1.4,1.5-2,3.7-1.5,5.7
			C106.2,62.2,107.6,61.8,107.4,60.9z"/>
		<path class="st5" d="M112.4,64.1c0-1.2,0.9-2.3,2.1-2.3c0.1,0,0.1,0,0.2,0c0.9,0.1,1.3-1.3,0.4-1.5c-2-0.3-3.9,1.1-4.2,3.2
			c0,0.2,0,0.4,0,0.6C110.9,65.1,112.4,65.1,112.4,64.1z"/>
		<path class="st5" d="M116.4,71.3c-0.2-1.6,0.8-3.1,2.4-3.3c0.2,0,0.3,0,0.5,0c1,0,1-1.4,0-1.5c-2.4,0-4.4,1.9-4.5,4.3
			c0,0.3,0,0.6,0.1,0.9C115.1,72.7,116.6,72.3,116.4,71.3z"/>
		<path d="M118.4,70.8c-3.6-6.1-7.8-12.4-15.5-13c-1.4-0.1-1.4,2.1,0,2.2c6.7,0.5,10.5,6.6,13.5,11.9c0.4,0.5,1.1,0.6,1.6,0.3
			C118.5,71.9,118.6,71.3,118.4,70.8L118.4,70.8z"/>
		<path class="st9" d="M126.2,86.7c0,0,2-5-22,2c0,0,7,20,20,19c0,0,18,3,25-19C149.2,88.7,130.2,81.7,126.2,86.7z"/>
		<path class="st10" d="M149.8,88.2c-2,2-46,0-46,0c14,20,25,16,25,16C141.8,103.2,149.8,88.2,149.8,88.2z"/>
	</g>
</g>
</svg>
