<svg xmlns="http://www.w3.org/2000/svg" xmlns:xlink="http://www.w3.org/1999/xlink" width="160.94" height="155.45" viewBox="0 0 160.94 155.45"><defs><style>.cls-1{fill:#fff;}.cls-1,.cls-2,.cls-3,.cls-4,.cls-5,.cls-6,.cls-7,.cls-8{stroke:#0a0a0a;stroke-miterlimit:10;}.cls-2{fill:url(#linear-gradient);}.cls-3{fill:url(#linear-gradient-2);}.cls-4{fill:url(#linear-gradient-3);}.cls-5{fill:url(#linear-gradient-4);}.cls-6{fill:url(#linear-gradient-5);}.cls-7{fill:url(#linear-gradient-6);}.cls-8{fill:url(#linear-gradient-7);}</style><linearGradient id="linear-gradient" x1="32.87" y1="95.07" x2="39.35" y2="95.07" gradientUnits="userSpaceOnUse"><stop offset="0" stop-color="#b3b3b3"/><stop offset="0.47" stop-color="#666"/><stop offset="1"/></linearGradient><linearGradient id="linear-gradient-2" x1="24.93" y1="107.97" x2="31.41" y2="107.97" gradientTransform="matrix(0.9, -0.44, 0.29, 0.61, -29.31, 54.29)" xlink:href="#linear-gradient"/><linearGradient id="linear-gradient-3" x1="120.18" y1="15.81" x2="126.66" y2="15.81" gradientTransform="translate(4.54 -15.6) rotate(8.76)" xlink:href="#linear-gradient"/><linearGradient id="linear-gradient-4" x1="60.87" y1="64.57" x2="67.35" y2="64.57" xlink:href="#linear-gradient"/><linearGradient id="linear-gradient-5" x1="210.59" y1="89.57" x2="217.07" y2="89.57" gradientTransform="matrix(-0.03, -1, -1, 0.03, 218.17, 256.02)" xlink:href="#linear-gradient"/><linearGradient id="linear-gradient-6" x1="39.24" y1="111.66" x2="45.72" y2="111.66" gradientTransform="matrix(0.24, 0.97, -1.45, 0.36, 205.53, 36.7)" xlink:href="#linear-gradient"/><linearGradient id="linear-gradient-7" x1="1.85" y1="79.82" x2="156.85" y2="79.82" xlink:href="#linear-gradient"/></defs><title>featherful</title><g id="Layer_2" data-name="Layer 2"><g id="Layer_1-2" data-name="Layer 1"><path class="cls-1" d="M21.44,130.64s-6.59-8.32-9.59-5.32c0,0,.5-4.5,6.5-.5,0,0-9-8-15-3,0,0,2-7,14-1,0,0-14-10-17-8,0,0,5-5,16,4,0,0-5-14-9-15,0,0,11,4,13,10,0,0,1-18-3-17,0,0,6-1,6,5,0,0,4-14-1-15,0,0,5.52.92,6,6.29q0,.34,0,.71c0,6,1-12,1-12l29-26s3-8,4-8,0,4,0,4,3-8,5-8l-2,6s37-36,41-33c0,0-4,8-3,10,0,0,7-13,9-13,0,0,16-8,23-9l-4,7s4-8,11-7l-2,2s6-5,11-4l-5,6s4-8,10-6l-7,6,11-5s-1,13-6,15c0,0,4-1,6-7,0,0,1.87,15-11.59,27.72q-.68.64-1.41,1.28l-9,2,12-2s-7,10-17,11l8,1a25.66,25.66,0,0,1-11,4l6,1-16,17h5s-21,17-29,17c0,0,15-3,20,1,0,0-19,2-20,5s-1,0-1,0l4,1-23,21s9,4,9,6c0,0-11-6-13-2,0,0,5,0,5,2,0,0-34,1-37,3,0,0,17.58,1.76,19.78,9.39a5.78,5.78,0,0,1,.22,1.61s-7-7-11-4-1,0-1,0,6,1,5,4c0,0-11-10-14-6,0,0,7,4,7,6,0,0-10-8-12-5,0,0,4,2,3,4,0,0-12-8.37-15-4.69S21.44,130.64,21.44,130.64Z"/><path class="cls-2" d="M33.35,112.82s-3-28.1,6-35.5Z"/><path class="cls-3" d="M28.88,115.82s-8.29-10.19-1.67-17.16Z"/><path class="cls-4" d="M119.56,30.26S119.49,11,129.14,7.45Z"/><path class="cls-5" d="M61.35,80.82s-3-25.73,6-32.5Z"/><path class="cls-6" d="M106.94,47.75s25.8,2.33,32.33-6.84Z"/><path class="cls-7" d="M35.8,120.05s26.83-9.8,36.26-2.88Z"/><path class="cls-8" d="M1.85,154.32s96-121,155-149c0,0-96.5,67.5-148.5,146.5Z"/></g></g></svg>
