<?xml version="1.0" encoding="utf-8"?>
<!-- Generator: Adobe Illustrator 21.0.2, SVG Export Plug-In . SVG Version: 6.00 Build 0)  -->
<svg version="1.1" id="Layer_1" xmlns="http://www.w3.org/2000/svg" xmlns:xlink="http://www.w3.org/1999/xlink" x="0px" y="0px"
	 viewBox="0 0 703.5 475.8" style="enable-background:new 0 0 703.5 475.8;" xml:space="preserve">
<style type="text/css">
	.st0{fill:url(#SVGID_1_);stroke:#050505;stroke-miterlimit:10;}
	.st1{fill:#BFBABA;stroke:#050505;stroke-miterlimit:10;}
	.st2{fill:url(#SVGID_2_);stroke:#050505;stroke-miterlimit:10;}
	.st3{fill:#050505;stroke:#050505;stroke-miterlimit:10;}
	.st4{fill:#F9F7F7;stroke:#050505;stroke-miterlimit:10;}
	.st5{fill:url(#SVGID_3_);stroke:#050505;stroke-miterlimit:10;}
	.st6{fill:#050505;}
	.st7{fill:#F4F2F2;}
</style>
<title>Asset 8</title>
<g id="Layer_2">
	<g id="Layer_1-2">

			<linearGradient id="SVGID_1_" gradientUnits="userSpaceOnUse" x1="351.7658" y1="3.5" x2="351.7658" y2="477.4988" gradientTransform="matrix(1 0 0 -1 0 478)">
			<stop  offset="4.000000e-02" style="stop-color:#000000"/>
			<stop  offset="0.1" style="stop-color:#666666"/>
			<stop  offset="0.22" style="stop-color:#B3B3B3"/>
			<stop  offset="0.42" style="stop-color:#000000"/>
		</linearGradient>
		<path class="st0" d="M695.3,322.1c-6.4,42.5-17.7,77.8-37.1,87.5c0,0-21.6,7.2-36-7.2c0,0-7.2,36-93.7,28.8
			c0,0-137-14.4-158.6,43.3c0,0-28.8-64.9-115.4-36c0,0-137,14.4-144.2-28.8c0,0-28.8,28.8-50.5,0c0,0-86.5-115.4-50.5-266.8
			c0,0,0.3-0.2,0.9-0.6C26,131.7,256.4-21.9,312.1,5.9c0,0,28.8,0,28.8,28.8c0,0,21.6-36,36,0c0,0,0-50.5,64.9-28.8
			c0,0,151.4,21.6,259.5,122.6C701.4,128.4,707.7,239,695.3,322.1z"/>
		<path class="st1" d="M695.3,322.1c-6.7,25.5-16.3,44.7-29.9,51.5c0,0-21.6,7.2-36-7.2c0,0-7.2,36-93.7,28.8
			c0,0-137-14.4-158.6,43.3c0,0-28.8-64.9-115.4-36c0,0-137,14.4-144.2-28.8c0,0-28.8,28.8-50.5,0c0,0-73.2-97.7-56.8-231.3
			C26,131.7,256.4-21.9,312.1,5.9c0,0,28.8,0,28.8,28.8c0,0,21.6-36,36,0c0,0,0-50.5,64.9-28.8c0,0,151.4,21.6,259.5,122.6
			C701.4,128.4,707.7,239,695.3,322.1z"/>

			<linearGradient id="SVGID_2_" gradientUnits="userSpaceOnUse" x1="52.54" y1="243.2881" x2="340.92" y2="243.2881" gradientTransform="matrix(1 0 0 -1 0 478)">
			<stop  offset="0" style="stop-color:#B3B3B3"/>
			<stop  offset="0.47" style="stop-color:#666666"/>
			<stop  offset="1" style="stop-color:#000000"/>
		</linearGradient>
		<path class="st2" d="M340.9,297c0,0-29.8-189-149.2-129.3c0,0-99.4,79.6-139.2,49.7c0,0,0,79.6,89.5,89.5c0,0,79.6,19.9,169-9.9
			C311.1,297,340.9,287,340.9,297z"/>
		<path class="st3" d="M340.9,354.6c-3.4-43.7-1.7-75.8-10.9-94.7c-15.7-32.2-49.5-71.9-87.2-79.4c-21.3-4.3-40.4,3.3-51.1,8.8
			c0,0-99.4,79.6-139.2,49.7c0,0,0,79.5,89.5,89.5c0,0,79.6,19.9,169-9.9C311.1,318.6,340.9,344.7,340.9,354.6z"/>
		<path class="st4" d="M304.9,301.5c0,0-21.6-137-108.1-93.7c0,0-72.1,57.7-100.9,36c0,0,0,57.7,64.9,64.9c0,0,57.7,14.4,122.6-7.2
			C283.2,301.5,304.9,294.3,304.9,301.5z"/>

			<linearGradient id="SVGID_3_" gradientUnits="userSpaceOnUse" x1="-933.79" y1="250.4978" x2="-645.41" y2="250.4978" gradientTransform="matrix(-1 0 0 -1 -254.02 478)">
			<stop  offset="0" style="stop-color:#B3B3B3"/>
			<stop  offset="0.47" style="stop-color:#666666"/>
			<stop  offset="1" style="stop-color:#000000"/>
		</linearGradient>
		<path class="st5" d="M391.4,289.7c0,0,29.8-188.9,149.2-129.3c0,0,99.4,79.6,139.2,49.7c0,0,0,79.6-89.5,89.5
			c0,0-79.5,19.9-169-9.9C421.2,289.7,391.4,279.8,391.4,289.7z"/>
		<path class="st3" d="M391.4,354.6c3.3-41.3-7.2-72.6,1.7-92.6c15.4-34.6,57.5-80.7,98-88.6c19.9-3.9,38,2.8,49.5,8.6
			c0,0,99.4,79.6,139.2,49.7c0,0,0,79.6-89.5,89.5c0,0-79.5,19.9-169-9.9C421.2,311.4,391.4,344.7,391.4,354.6z"/>
		<path class="st4" d="M427.4,294.3c0,0,21.6-137,108.1-93.7c0,0,72.1,57.7,100.9,36c0,0,0,57.7-64.9,64.9c0,0-57.7,14.4-122.6-7.2
			C449.1,294.3,427.4,287.1,427.4,294.3z"/>
		<path class="st6" d="M350.9,350.3c2.4-36.8-0.9-73.8-10-109.6c-4.6-17.9-10.6-35.5-17.9-52.5c-7-16.4-15.5-33.2-16.7-51.2
			c-1.2-16.6,4.2-35,19.2-43.9c3.3-2,0.3-7.2-3-5.2c-12.3,7.3-19.4,20.4-21.6,34.3c-2.7,17.1,2.2,33.8,8.5,49.6
			c7.3,17.9,15.2,35.3,20.9,53.8c5.9,19,10.1,38.4,12.6,58.1c2.8,22.1,3.4,44.4,1.9,66.6C344.7,354.2,350.7,354.2,350.9,350.3
			L350.9,350.3z"/>
		<path class="st6" d="M330.5,90.9C336.8,97,344,104,345.5,113c1.3,8-5.6,18.9-14.6,15.4c-3.6-1.4-5.2,4.4-1.6,5.8
			c10.6,4,20.5-5.7,22.2-15.7c2.1-12.8-8.5-23.7-16.8-31.8C331.9,84,327.7,88.2,330.5,90.9L330.5,90.9z"/>
		<path class="st6" d="M386.2,349.3c-2.6-39.7,1.6-79.5,12.4-117.7c5.4-19,12.9-37,20.7-55.2c6.6-15.6,12.8-32.3,11.5-49.5
			c-1.2-15.9-8.1-31.6-22.2-40c-3.3-2-6.4,3.2-3,5.2c13.1,7.8,19,22.9,19.4,37.6c0.5,17.9-7,34.9-14,51
			c-14.6,33.5-24.8,68.3-29.1,104.7c-2.5,21.2-3,42.6-1.6,63.9C380.5,353.1,386.5,353.2,386.2,349.3L386.2,349.3z"/>
		<path class="st6" d="M403.6,85.7c-8.4,8.2-18.9,19-16.8,31.8c1.6,10,11.6,19.8,22.2,15.7c3.6-1.4,2-7.2-1.6-5.8
			c-9,3.5-15.9-7.4-14.6-15.4c1.5-9.1,8.8-16,15.1-22.1C410.6,87.2,406.3,83,403.6,85.7L403.6,85.7z"/>
		<path class="st6" d="M308.8,157c-14.6-23.2-29.6-47.1-50.9-64.8c-18.9-15.8-43.5-27.4-68.7-24.8c-20.9,2.2-42,14-51.3,33.5
			c-9.4,19.6-4.9,47.5,18.3,54.6c10.6,3.2,22.5,0.2,28.7-9.3c5.6-8.7,5.6-20.4-1.6-28.1c-2.6-2.8-6.9,1.4-4.2,4.2
			c5.9,6.5,4.6,16.9-1.2,23.1c-6.6,7.1-17.8,6.4-25.6,1.8c-19.1-11.2-15.1-38.6-2.9-53.2c12.1-14.5,31.5-21.8,50.1-20.9
			c21.7,1.1,41.9,12.2,57.8,26.5c19,17.1,32.7,39,46.2,60.4C305.6,163.3,310.8,160.3,308.8,157L308.8,157z"/>
		<path class="st6" d="M145.7,134.5c-23.6-10.4-57.5-23.2-78.7-0.7c-8,8.4-12,21.1-7.6,32.3c4,10,15.3,16.9,25.7,11.6
			s9.8-21.3-1.9-24.6c-3.7-1-5.3,4.7-1.6,5.8c5.9,1.7,6.5,9.5,1.7,12.9c-5,3.5-11.4,1.7-15.2-2.6c-8.1-9.1-4.4-22.9,3.1-31
			c18.9-20.3,50.5-7.6,71.4,1.6C146.2,141.2,149.2,136,145.7,134.5L145.7,134.5z"/>
		<path class="st6" d="M430.8,145.6c22.7-36.1,49.7-77.6,95.1-85.9c19.1-3.5,39.8,1.5,54.2,14.8c14,12.9,22.2,37.9,7.7,53.7
			c-6.8,7.4-19.3,11.1-28.3,5.4c-8.3-5.3-11.2-18.2-4.3-25.7c2.6-2.8-1.6-7.1-4.2-4.2c-6.3,6.8-7.1,16.6-3.3,24.9
			c4.1,8.9,13.2,14.4,23,13.8c24.4-1.1,34.9-27.4,28.6-48.4c-6.2-20.8-25.7-35.2-46.3-39.7c-24.5-5.3-49.7,3.6-69.4,18
			c-25,18.2-41.8,44.7-58,70.4C423.5,145.9,428.7,148.9,430.8,145.6L430.8,145.6z"/>
		<path class="st6" d="M591.7,125.2c21.1-9.3,52.4-21.8,71.5-1.6c7.4,7.9,11,21,3.7,30.2c-3.5,4.5-9.8,7-15.1,3.9s-5.5-11.6,1-13.4
			c3.7-1,2.1-6.8-1.6-5.8c-9.8,2.7-12.5,15.6-5.1,22.4c8.3,7.7,20.9,3.7,26.6-4.9c6.7-10,4.7-23.2-2-32.7
			c-7.7-10.9-20.7-15.9-33.7-16.4c-17.1-0.7-33.1,6.3-48.4,13.1C585.1,121.6,588.2,126.8,591.7,125.2L591.7,125.2z"/>
		<path class="st6" d="M402.1,334.2c10.4,13.5,21.3,26.6,36,35.6c14.7,9,31.6,13.8,48.8,14c14.1,0,30.9-2.9,41.5-12.9
			c4.9-4.6,8.1-11.4,5.7-18.1s-9.4-10.4-15.9-11.9c-7.4-1.7-16.5-1.4-22.5,3.8c-4.9,4.2-5.8,10.7-0.9,15.2c2.9,2.6,7.1-1.6,4.2-4.2
			c-3.4-3.1-0.4-6.4,2.9-8c3.5-1.8,7.8-2,11.7-1.5c7.8,0.9,18.9,6.3,14.2,15.9c-6.3,12.6-27,15.5-39.3,15.7
			c-16.5,0.1-32.6-4.3-46.7-12.8c-14.2-8.5-24.6-21-34.5-33.9C404.9,328.1,399.7,331.1,402.1,334.2L402.1,334.2z"/>
		<path class="st6" d="M526.2,355.1c13.2,4.8,26.7,9.3,41,8.8c9.7-0.3,24.8-3.1,28.5-13.9c3.5-10.3-8.4-16.3-17-15.4
			c-3.8,0.4-8.6,2-9.8,6.1c-1.3,4.6,2.7,7.9,6.6,9c3.7,1.1,5.3-4.7,1.6-5.8c-6.2-1.8,3.5-3.6,5.4-3.4c3.3,0.4,8.4,2.5,7.7,6.8
			c-1.2,6.7-11.9,9.2-17.3,10c-15.5,2.2-30.6-2.9-45-8.1C524.2,347.9,522.6,353.7,526.2,355.1L526.2,355.1z"/>
		<path class="st6" d="M323.9,338.4c-9.9,12.9-20.4,25.4-34.5,33.9c-14.1,8.5-30.3,12.9-46.7,12.8c-12.4-0.2-33-3-39.3-15.7
			c-4.8-9.5,6.4-15,14.1-15.9c3.9-0.4,8.1-0.2,11.7,1.5c3.3,1.6,6.4,4.9,2.9,8c-2.9,2.6,1.4,6.8,4.2,4.2c4-3.6,4.4-8.9,1.1-13.2
			c-4.4-5.7-12.5-7.2-19.2-6.7s-14,2.8-18.5,8c-5,5.9-4.4,13.7,0.1,19.6c8.4,11.1,24.9,14.8,37.9,15.7c17.2,1.3,34.7-2.8,49.9-10.8
			c17.3-9,29.6-23.4,41.3-38.6C331.5,338.3,326.2,335.3,323.9,338.4L323.9,338.4z"/>
		<path class="st6" d="M203.4,356.5c-14.4,5.2-29.5,10.4-45,8.1c-5.3-0.8-16.4-3.3-17.4-10c-0.5-3.8,3.5-6,6.7-6.6
			c1.8-0.4,3.6-0.4,5.3,0c2.3,0.5,5.1,2.1,1,3.3c-3.7,1.1-2.1,6.9,1.6,5.8c3.9-1.1,7.6-4.1,6.7-8.6c-0.8-4.3-5.6-6-9.5-6.5
			c-8.7-1.1-20.9,4.9-17.4,15.3s18.1,13.4,27.6,13.8c14.5,0.6,28.4-3.9,41.8-8.8C208.5,361,206.9,355.2,203.4,356.5L203.4,356.5z"/>

			<ellipse transform="matrix(0.6489 -0.7609 0.7609 0.6489 117.3043 539.9153)" class="st7" cx="643.7" cy="142.8" rx="7.2" ry="7.2"/>
		<ellipse transform="matrix(0.65 -0.76 0.76 0.65 -36.9578 191.6879)" class="st7" cx="189.6" cy="136" rx="7.2" ry="7.2"/>

			<ellipse transform="matrix(0.6489 -0.7609 0.7609 0.6489 -220.6262 196.8765)" class="st7" cx="103" cy="337.5" rx="7.2" ry="7.2"/>

			<ellipse transform="matrix(0.6489 -0.7609 0.7609 0.6489 -226.9557 226.4052)" class="st7" cx="131.9" cy="359.1" rx="7.2" ry="7.2"/>

			<ellipse transform="matrix(0.6489 -0.7609 0.7609 0.6489 -30.3623 594.7496)" class="st7" cx="629.3" cy="330.3" rx="7.2" ry="7.2"/>

			<ellipse transform="matrix(0.5313 -0.8472 0.8472 0.5313 -90.3085 108.1107)" class="st7" cx="52.5" cy="135.7" rx="7.2" ry="7.2"/>
		<ellipse transform="matrix(0.993 -0.1182 0.1182 0.993 -12.1506 23.2071)" class="st7" cx="189.5" cy="114" rx="7.2" ry="7.2"/>

			<ellipse transform="matrix(0.932 -0.3624 0.3624 0.932 -19.1007 255.9178)" class="st7" cx="672.5" cy="178.9" rx="7.2" ry="7.2"/>
		<ellipse transform="matrix(0.932 -0.3624 0.3624 0.932 10.1246 209.8587)" class="st7" cx="564.4" cy="77.9" rx="7.2" ry="7.2"/>

			<ellipse transform="matrix(0.9979 -6.540313e-02 6.540313e-02 0.9979 -4.1552 36.3508)" class="st7" cx="553.1" cy="81.6" rx="3.8" ry="3.8"/>
	</g>
</g>
</svg>
