<?xml version="1.0" encoding="utf-8"?>
<!-- Generator: Adobe Illustrator 16.0.0, SVG Export Plug-In . SVG Version: 6.00 Build 0)  -->
<!DOCTYPE svg PUBLIC "-//W3C//DTD SVG 1.1//EN" "http://www.w3.org/Graphics/SVG/1.1/DTD/svg11.dtd">
<svg version="1.1" id="Layer_1" xmlns="http://www.w3.org/2000/svg" xmlns:xlink="http://www.w3.org/1999/xlink" x="0px" y="0px"
	 width="234.456px" height="74.255px" viewBox="0 0 234.456 74.255" enable-background="new 0 0 234.456 74.255"
	 xml:space="preserve">
<path stroke="#000000" stroke-miterlimit="10" d="M26.392,73.752c0,0,1-77,22.333-58.333s8,58.333,8,58.333H26.392z"/>
<path stroke="#000000" stroke-miterlimit="10" d="M37.725,61.751c0,0,1-77,22.333-58.333s8,58.333,8,58.333H37.725z"/>
<path stroke="#000000" stroke-miterlimit="10" d="M56.392,73.751c0,0,1-76.999,22.333-58.333c21.333,18.667,8,58.333,8,58.333
	H56.392z"/>
<path stroke="#000000" stroke-miterlimit="10" d="M85.058,73.751c0,0,1-76.999,22.333-58.332s7.999,58.332,7.999,58.332H85.058z"/>
<path stroke="#000000" stroke-miterlimit="10" d="M107.058,65.418c0,0,1-76.999,22.333-58.332s7.999,58.332,7.999,58.332H107.058z"
	/>
<path stroke="#000000" stroke-miterlimit="10" d="M115.725,73.752c0,0,1-76.999,22.333-58.332s7.999,58.332,7.999,58.332H115.725z"
	/>
<path stroke="#000000" stroke-miterlimit="10" d="M144.39,73.753c0,0,1.001-76.999,22.334-58.333s7.999,58.333,7.999,58.333H144.39z
	"/>
<path stroke="#000000" stroke-miterlimit="10" d="M171.057,73.753c0,0,1.001-76.999,22.334-58.333s7.999,58.333,7.999,58.333
	H171.057z"/>
<path stroke="#000000" stroke-miterlimit="10" d="M178.839,63.751c0,0,1.001-76.999,22.334-58.333s7.999,58.333,7.999,58.333
	H178.839z"/>
<path stroke="#000000" stroke-miterlimit="10" d="M199.506,73.751c0,0,1.001-76.999,22.334-58.333s7.999,58.333,7.999,58.333
	H199.506z"/>
<path stroke="#000000" stroke-miterlimit="10" d="M0.506,73.753c0,0,1.001-76.999,22.334-58.332s7.999,58.332,7.999,58.332H0.506z"
	/>
</svg>
