<svg xmlns="http://www.w3.org/2000/svg" xmlns:xlink="http://www.w3.org/1999/xlink" width="143.5" height="105.48" viewBox="0 0 143.5 105.48"><defs><style>.cls-1,.cls-2,.cls-3{stroke:#000;stroke-miterlimit:10;}.cls-1{fill:url(#linear-gradient);}.cls-2{fill:#fff;}.cls-3{fill:url(#linear-gradient-2);}.cls-4{fill:#e9e9e9;opacity:0.43;}</style><linearGradient id="linear-gradient" x1="0.5" y1="52.5" x2="143" y2="52.5" gradientUnits="userSpaceOnUse"><stop offset="0" stop-color="#b3b3b3"/><stop offset="0.47" stop-color="#666"/><stop offset="1"/></linearGradient><linearGradient id="linear-gradient-2" x1="5.5" y1="51" x2="12.61" y2="51" xlink:href="#linear-gradient"/></defs><title>svg</title><g id="Layer_2" data-name="Layer 2"><g id="Layer_1-2" data-name="Layer 1"><path class="cls-1" d="M4.94,11.5s-10,68,0,87l9-3s93,7,110,3l5,6a301.66,301.66,0,0,0,9.63-33.37c3.38-14.76,2.44-28.72,1.79-47.07-.23-6.51,3.13-11.89,2.59-15.56l-14,7s-52-17-110-4c0,0-10-11-14-11S4.94,11.5,4.94,11.5Z"/><path class="cls-2" d="M141.94,6.5"/><path class="cls-3" d="M9.94,19.5s-10,50,0,63C9.94,82.5,15.94,31.5,9.94,19.5Z"/><path class="cls-4" d="M23.94,19.5s1.58-.33,4.41-.8c14.25-2.4,60-8.55,92.59,4.8,0,0,9,7,6,27C126.94,50.5,133.94,9.5,23.94,19.5Z"/><path class="cls-4" d="M19.94,52.5s-2,29-4,36,93,3,93,3-89-1-85-9S19.94,52.5,19.94,52.5Z"/></g></g></svg>
