<svg xmlns="http://www.w3.org/2000/svg" xmlns:xlink="http://www.w3.org/1999/xlink" width="70.61" height="124.18" viewBox="0 0 70.61 124.18"><defs><style>.cls-1,.cls-2,.cls-3,.cls-4,.cls-5,.cls-6,.cls-7,.cls-8,.cls-9{stroke:#0a0a0a;stroke-miterlimit:10;}.cls-1{fill:url(#linear-gradient);}.cls-2{fill:url(#linear-gradient-2);}.cls-3{fill:url(#linear-gradient-3);}.cls-4{fill:url(#linear-gradient-4);}.cls-5{fill:url(#linear-gradient-5);}.cls-6{fill:url(#linear-gradient-6);}.cls-7{fill:url(#linear-gradient-7);}.cls-8{fill:url(#linear-gradient-8);}.cls-9{fill:url(#linear-gradient-9);}.cls-10{fill:#e5e3e3;opacity:0.42;}</style><linearGradient id="linear-gradient" x1="0.89" y1="46.93" x2="47.1" y2="46.93" gradientUnits="userSpaceOnUse"><stop offset="0" stop-color="#b3b3b3"/><stop offset="0.47" stop-color="#666"/><stop offset="1"/></linearGradient><linearGradient id="linear-gradient-2" x1="18.73" y1="46.74" x2="53.45" y2="46.74" gradientTransform="matrix(1.34, 0.33, -0.25, 1.03, -6.03, -16.82)" xlink:href="#linear-gradient"/><linearGradient id="linear-gradient-3" x1="23.78" y1="34.43" x2="58.5" y2="34.43" gradientTransform="matrix(1.23, 0.5, -0.36, 0.88, -2.39, -5.55)" xlink:href="#linear-gradient"/><linearGradient id="linear-gradient-4" x1="31.52" y1="45.26" x2="66.24" y2="45.26" gradientTransform="matrix(1.22, 0.65, -0.49, 0.93, 4.71, -33.52)" xlink:href="#linear-gradient"/><linearGradient id="linear-gradient-5" x1="17.69" y1="7.69" x2="52.41" y2="7.69" gradientTransform="matrix(1.04, 0.79, -0.6, 0.8, 16.44, 9.36)" xlink:href="#linear-gradient"/><linearGradient id="linear-gradient-6" x1="23.19" y1="2.26" x2="57.91" y2="2.26" gradientTransform="matrix(0.97, 1.13, -0.77, 0.66, 18.19, -6.77)" xlink:href="#linear-gradient"/><linearGradient id="linear-gradient-7" x1="23.01" y1="3.47" x2="57.73" y2="3.47" gradientTransform="matrix(1.24, 0.94, -0.65, 0.87, 2.54, -3.24)" xlink:href="#linear-gradient"/><linearGradient id="linear-gradient-8" x1="22.59" y1="15.88" x2="57.3" y2="15.88" gradientTransform="matrix(1.43, 0.85, -0.54, 0.91, -14.13, -5.4)" xlink:href="#linear-gradient"/><linearGradient id="linear-gradient-9" x1="41.89" y1="99.43" x2="53.89" y2="99.43" xlink:href="#linear-gradient"/></defs><title>svg3</title><g id="Layer_2" data-name="Layer 2"><g id="Layer_1-2" data-name="Layer 1"><path class="cls-1" d="M3.55,18.68.89,21.94S45.48,32.8,45.15,75.18C45.15,75.18,60.8,41.49,3.55,18.68Z"/><path class="cls-2" d="M16.58,11.34l-3.45,2.42S55.61,35.11,45.41,75.09C45.41,75.09,69,47.13,16.58,11.34Z"/><path class="cls-3" d="M26.35,14.67l-3.53,1.66S60.49,41.75,46.33,76C46.33,76,71.81,54.51,26.35,14.67Z"/><path class="cls-4" d="M36.34,6,32.42,7.46S68.54,38.34,49.18,74.32C49.18,74.32,78.71,53.18,36.34,6Z"/><path class="cls-5" d="M48,10.25l-3.89.82s29,34.29,5.36,65.17C49.45,76.23,80.31,60.78,48,10.25Z"/><path class="cls-6" d="M60.83,5.93l-4.24-.27S81.35,50,51.16,75.48C51.16,75.48,86.36,68.25,60.83,5.93Z"/><path class="cls-7" d="M48.37.55l-4.45.74S79,41.31,53.16,75C53.16,75,88.06,59,48.37.55Z"/><path class="cls-8" d="M26.52,6.32,22,7.35S64.56,44.93,43.11,80.2C43.11,80.2,76.69,62,26.52,6.32Z"/><path class="cls-9" d="M53.89,118.74a7.37,7.37,0,0,1-.8,3.49,2.4,2.4,0,0,1-1.95,1.45h-6.5c-1.52,0-2.75-2.22-2.75-4.94a7.37,7.37,0,0,1,.8-3.49,3.07,3.07,0,0,1,1.2-1.26V84.87c-1.15-.58-2-2.5-2-4.75a7.37,7.37,0,0,1,.8-3.49,2.4,2.4,0,0,1,1.95-1.45h6.5c1.52,0,2.75,2.22,2.75,4.94a7.37,7.37,0,0,1-.8,3.49,3.59,3.59,0,0,1-.7.9v29.84A6.14,6.14,0,0,1,53.89,118.74Z"/><path class="cls-10" d="M44.65,78.35s1.12,6.22,6.76,4.13C51.42,82.48,41.42,86.73,44.65,78.35Z"/><path class="cls-10" d="M44.65,115.89s1.12,6.22,6.76,4.13C51.42,120,41.42,124.28,44.65,115.89Z"/><path class="cls-10" d="M51.44,118.52s-.59-2.56-3.55-1.68C47.89,116.84,53.13,115.06,51.44,118.52Z"/></g></g></svg>
